<?xml version="1.0" encoding="UTF-8"?>
<svg version="1.1" xmlns="http://www.w3.org/2000/svg" width="2000" height="2000">
<path d="M0 0 C660 0 1320 0 2000 0 C2000 660 2000 1320 2000 2000 C1340 2000 680 2000 0 2000 C0 1340 0 680 0 0 Z " fill="#000000" transform="translate(0,0)"/>
<path d="M0 0 C0.84712775 0.00092179 1.6942555 0.00184359 2.56705379 0.00279331 C3.53605618 0.00141865 4.50505856 0.00004398 5.50342464 -0.00137234 C6.5751643 0.00222294 7.64690395 0.00581821 8.75112057 0.00952244 C10.43383053 0.0093034 10.43383053 0.0093034 12.15053463 0.00907993 C15.87866266 0.00977963 19.60674144 0.01757468 23.3348608 0.02539158 C25.91175973 0.02725556 28.48865902 0.02867955 31.06555843 0.0296793 C37.16770571 0.03311441 43.26983249 0.04100523 49.37197202 0.05102879 C56.31744705 0.06219094 63.26292291 0.06770063 70.20840466 0.07272422 C84.49926422 0.08318787 98.79010875 0.10078668 113.08095455 0.12304783 C113.28744594 0.68543313 113.49393732 1.24781843 113.70668602 1.82724571 C115.90454627 7.81305051 118.10271041 13.79874365 120.30103207 19.78437901 C121.1156203 22.00247111 121.93013729 24.22058937 122.74457455 26.43873692 C129.76463553 45.5578642 136.81446468 64.6658583 143.8817358 83.76757908 C146.65485635 91.26317803 149.42300426 98.76058557 152.1864233 106.25976658 C166.80615375 145.92493277 181.46465871 185.57653877 196.89345455 224.93554783 C197.30197659 225.9791547 197.71049862 227.02276157 198.13140011 228.0979929 C203.26162481 241.18773955 208.55869982 254.19369694 214.08095455 267.12304783 C218.79850753 262.43102017 223.51200066 257.73494171 228.22280025 253.03613377 C229.82312273 251.44081482 231.42434475 249.84639769 233.02651119 248.25293064 C235.34004825 245.95163452 237.65024354 243.64702712 239.9598608 241.34179783 C241.02123005 240.28817051 241.02123005 240.28817051 242.1040411 239.21325779 C246.08404726 235.23369359 249.88804338 231.15748225 253.55750179 226.88928318 C255.83914542 224.2440291 258.21033896 221.68889059 260.58095455 219.12304783 C263.62064451 215.82352006 266.64253515 212.51353176 269.58095455 209.12304783 C273.3739268 204.74654139 277.30752302 200.50135019 281.23720455 196.24804783 C283.35404382 193.94190994 285.41879391 191.59571386 287.47157955 189.23242283 C290.99749623 185.18798899 294.64521988 181.27160707 298.33095455 177.37304783 C304.63805892 170.67350141 310.87773975 163.91880852 317.08095455 157.12304783 C318.48603259 155.59158188 319.89225079 154.06116803 321.29848385 152.53076267 C328.63866749 144.53741091 335.91983239 136.51106155 342.95595455 128.24804783 C347.29888657 123.14783694 351.73935805 118.1584492 356.28749752 113.24072361 C358.75920306 110.56790582 361.19733572 107.87468382 363.58095455 105.12304783 C371.11952644 96.44388823 379.03243896 88.09101893 386.88344479 79.69555759 C391.41063601 74.85106015 395.89974065 69.97351164 400.3739233 65.08007908 C403.24586144 61.9397159 406.13107734 58.81171314 409.01845455 55.68554783 C409.51530758 55.1474448 410.01216061 54.60934177 410.52406979 54.05493259 C413.07789432 51.28970011 415.63334633 48.52598469 418.19032955 45.76367283 C424.20548488 39.26213728 430.17164978 32.72123331 436.08095455 26.12304783 C438.32596871 23.62728166 440.5722726 21.13268434 442.8192358 18.63867283 C444.36173616 16.92300749 445.9006532 15.20411535 447.4364233 13.48242283 C448.20599361 12.62132908 448.97556393 11.76023533 449.76845455 10.87304783 C450.45294674 10.10476658 451.13743893 9.33648533 451.8426733 8.54492283 C452.95062252 7.3460947 452.95062252 7.3460947 454.08095455 6.12304783 C454.87019314 5.09714542 455.65943172 4.07124302 456.47258663 3.01425266 C460.16188077 -0.62503993 463.62223321 -0.58385377 468.6332159 -0.62347317 C469.76178509 -0.60190151 470.89035427 -0.58032986 472.05312252 -0.55810452 C473.25368786 -0.55898067 474.4542532 -0.55985683 475.6911993 -0.56075954 C478.970285 -0.5573042 482.24781901 -0.52729226 485.52659655 -0.4853158 C488.95782428 -0.44771627 492.38908506 -0.44427626 495.82048702 -0.43716335 C502.31232618 -0.41854125 508.8035565 -0.36934108 515.29512799 -0.30906641 C522.68802693 -0.24191824 530.08095551 -0.20899159 537.47408366 -0.1788938 C552.67671274 -0.11623881 567.87877266 -0.01075626 583.08095455 0.12304783 C582.179513 15.82334876 582.179513 15.82334876 580.7332983 23.55664158 C580.53503696 24.62680264 580.53503696 24.62680264 580.33277035 25.71858311 C579.9053415 28.0014217 579.46328746 30.28104151 579.01845455 32.56054783 C578.79044155 33.74952671 578.79044155 33.74952671 578.55782223 34.96252537 C574.64628383 55.3021191 569.8614387 75.4901617 563.80312252 95.30371189 C561.95495609 101.37469646 560.46081865 107.52120075 558.95522213 113.68457127 C557.63397806 119.04395472 556.17874902 124.33990703 554.58095455 129.62304783 C552.75403662 135.66773541 551.14145631 141.73868596 549.64345455 147.87304783 C547.99694011 154.60796855 546.2123287 161.28046968 544.26845455 167.93554783 C541.66239258 176.86768406 539.31719712 185.85826847 537.01845455 194.87304783 C534.8288829 203.45720307 532.60169052 212.01099161 530.0121069 220.48437595 C527.6334045 228.39636048 525.66159611 236.41948376 523.62059689 244.42349339 C521.27798677 253.6018132 518.81412534 262.73159569 516.15932369 271.82519627 C514.49600022 277.56079444 512.99870038 283.32215157 511.58095455 289.12304783 C509.9553129 295.77457763 508.18734111 302.36270726 506.26845455 308.93554783 C503.66252643 317.86771498 501.31697561 326.85821223 499.01845455 335.87304783 C496.76366967 344.71618484 494.45722668 353.52545033 491.8011694 362.25781345 C489.99444369 368.25486425 488.51126923 374.31984218 487.02553463 380.40307713 C485.51749001 386.52024065 483.84192982 392.57421266 482.08095455 398.62304783 C480.10145774 405.4253301 478.261112 412.24069528 476.58095455 419.12304783 C474.95550302 425.77462633 473.1872406 432.36268498 471.26845455 438.93554783 C468.49236826 448.45563433 466.0134028 458.04522593 463.56328487 467.65301609 C461.26333463 476.6622082 458.83933949 485.62058644 456.22939205 494.54492283 C454.05707125 502.04179083 452.18926091 509.60365282 450.33046627 517.18335056 C448.50430224 524.57425872 446.46623069 531.88280604 444.33095455 539.18945408 C442.41759677 545.79651766 440.71921058 552.44289463 439.08095455 559.12304783 C437.11672192 567.12403507 435.03402498 575.07677979 432.76845455 582.99804783 C432.51386471 583.89007908 432.25927486 584.78211033 431.99697018 585.70117283 C430.21705884 591.85083926 430.21705884 591.85083926 429.08095455 594.12304783 C391.46095455 594.12304783 353.84095455 594.12304783 315.08095455 594.12304783 C319.72395607 572.06879063 319.72395607 572.06879063 321.58095455 564.81054783 C321.79107174 563.97773289 322.00118893 563.14491795 322.2176733 562.28686619 C323.42141438 557.55990265 324.70865378 552.86686417 326.08095455 548.18554783 C327.75780166 542.45463662 329.16220469 536.68584587 330.51845455 530.87304783 C332.01247347 524.47626549 333.58643367 518.12610835 335.39345455 511.81054783 C338.22219242 501.90535446 340.67037857 491.9045938 343.13881588 481.90503025 C345.35277618 472.94913745 347.68401556 464.03178974 350.08095455 455.12304783 C350.89810295 452.04093094 351.70877638 448.95713448 352.51845455 445.87304783 C352.94422884 444.25325433 353.3700103 442.63346272 353.7957983 441.01367283 C354.11459957 439.80034275 354.11459957 439.80034275 354.43984127 438.56250095 C355.07106207 436.16068898 355.70283474 433.75902301 356.3348608 431.35742283 C356.64314816 430.18590672 356.64314816 430.18590672 356.95766354 428.99072361 C357.37492026 427.40570375 357.79240258 425.82074327 358.21010494 424.2358408 C359.23294389 420.35342222 360.25177358 416.47005937 361.26064205 412.58398533 C363.58062807 403.67145984 366.00866779 394.79658992 368.51845455 385.93554783 C371.15511728 376.61853211 373.57608463 367.26644462 375.88149166 357.86254978 C377.69003466 350.54122634 379.71298308 343.3020103 381.82900143 336.06445408 C384.06286875 328.35382065 385.98931079 320.57886079 387.90126705 312.78320408 C389.49327636 306.34015071 391.25381463 299.98158715 393.18666744 293.63379002 C395.02414369 287.51325981 396.55857074 281.3285006 398.08095455 275.12304783 C399.93586972 267.56214996 401.91878806 260.08138812 404.1864233 252.63476658 C406.33009313 245.49375181 408.06837228 238.25721717 409.84169674 231.0170908 C411.52995152 224.1778025 413.40984003 217.4272462 415.45668697 210.68774509 C417.00560157 205.53646468 418.1562265 200.41921757 419.08095455 195.12304783 C408.49666089 204.02532377 408.49666089 204.02532377 398.08095455 213.12304783 C397.21470455 213.88488377 396.34845455 214.6467197 395.45595455 215.43164158 C384.38822089 225.3366745 374.45624093 236.30254722 364.5770483 247.37695408 C360.47533413 251.88948157 356.27392245 256.3080703 352.08730221 260.74170017 C348.1996126 264.86208759 344.33734716 269.0013202 340.51845455 273.18554783 C333.78062426 280.56795381 326.92581237 287.84000956 320.08095455 295.12304783 C312.54587329 303.14340728 305.01869824 311.16958737 297.56410885 319.26489353 C292.02484782 325.2772324 286.44104383 331.24782536 280.85878658 337.2202158 C279.10765147 339.09447384 277.35773541 340.96986112 275.6082983 342.84570408 C268.97828736 349.95449719 262.33730519 357.05283567 255.68666744 364.14233494 C250.9016636 369.24431665 246.1271429 374.3559774 241.3570776 379.47192478 C237.68624017 383.40751341 234.0065537 387.33463554 230.32167721 391.25708103 C227.23726311 394.54183755 224.15792766 397.8313213 221.08095455 401.12304783 C220.55840084 401.68153416 220.03584713 402.24002048 219.49745846 402.81543064 C213.85595785 408.85791573 208.44914922 415.02923021 203.2645483 421.47070408 C200.38558551 424.96769109 197.33517988 428.29185362 194.2801733 431.63476658 C191.36256416 434.93586254 188.67282876 438.39353765 186.00282955 441.89648533 C182.77339173 445.6379072 180.59611552 447.95636345 175.5301733 448.51367283 C174.28880611 448.46726658 173.04743893 448.42086033 171.76845455 448.37304783 C170.51419674 448.33695408 169.25993893 448.30086033 167.9676733 448.26367283 C167.01505611 448.21726658 166.06243893 448.17086033 165.08095455 448.12304783 C157.30830265 429.45635848 149.97627505 410.62731034 142.68715572 391.76782322 C136.86314751 376.70181123 130.98877904 361.65637823 125.08095455 346.62304783 C118.53919429 329.97239108 112.0383794 313.30658876 105.58095455 296.62304783 C99.31118075 280.43054851 93.02337646 264.24522289 86.69521236 248.07544041 C85.84393315 245.89950559 84.99347586 243.72324898 84.14394283 241.54663181 C81.840311 235.6459469 79.51893572 229.75289824 77.17085934 223.86975193 C76.44486692 222.04015508 75.72605306 220.20769325 75.01448727 218.37243748 C74.00505569 215.76938062 72.97331941 213.17620171 71.9364233 210.58398533 C71.64930981 209.8271143 71.36219631 209.07024326 71.06638241 208.29043674 C68.66935148 202.40678891 64.90389224 197.03451667 59.08095455 194.12304783 C59.00618893 194.74566502 58.9314233 195.3682822 58.85439205 196.00976658 C57.77492775 203.59776561 55.83799619 210.74378905 53.6761694 218.08276463 C51.29699687 226.2176121 49.17163585 234.41050742 47.08095455 242.62304783 C44.65320657 252.14398373 42.1295987 261.62163761 39.37001705 271.05273533 C37.10615928 278.86669604 35.09194998 286.74130403 33.08095455 294.62304783 C30.65181028 304.14365266 28.12961477 313.62158269 25.37001705 323.05273533 C23.10615928 330.86669604 21.09194998 338.74130403 19.08095455 346.62304783 C16.65181028 356.14365266 14.12961477 365.62158269 11.37001705 375.05273533 C8.91197903 383.53693109 6.74617736 392.09404279 4.56346798 400.65200901 C2.24029159 409.7518393 -0.20565053 418.80224871 -2.83872318 427.81738377 C-4.76794814 434.46696844 -6.45322995 441.16206518 -8.09555912 447.88745213 C-9.57292456 453.88284167 -11.26052745 459.78957039 -13.04648685 465.6992197 C-14.64709083 471.05369535 -16.0310604 476.44446892 -17.35654545 481.87304783 C-19.05761488 488.83881949 -20.91475289 495.73843361 -22.91904545 502.62304783 C-24.89854423 509.4253369 -26.73876098 516.24072186 -28.41904545 523.12304783 C-30.30696947 530.84313249 -32.39795838 538.48508978 -34.6182642 546.11596775 C-35.93719971 550.6569584 -37.21795787 555.20269513 -38.4229517 559.77539158 C-44.76367361 583.81230415 -44.76367361 583.81230415 -49.91904545 594.12304783 C-86.21904545 594.12304783 -122.51904545 594.12304783 -159.91904545 594.12304783 C-157.67196452 580.64056226 -157.67196452 580.64056226 -156.40342045 576.14257908 C-156.12474125 575.13614353 -155.84606205 574.12970798 -155.55893803 573.09277439 C-155.26527348 572.05088963 -154.97160892 571.00900486 -154.66904545 569.93554783 C-152.18845079 560.94997914 -149.86589552 551.94713587 -147.73154545 542.87304783 C-145.95364772 535.32365107 -144.05155342 527.8684363 -141.84873295 520.43164158 C-140.55358203 515.82242801 -139.4909231 511.16803566 -138.4163599 506.50341892 C-136.91273391 500.00699295 -135.2079032 493.57320066 -133.4620142 487.13769627 C-132.45126477 483.3873796 -131.46788559 479.62984338 -130.48154545 475.87304783 C-130.05447973 474.2480432 -129.6273963 472.62304323 -129.20029545 470.99804783 C-128.98760014 470.18851658 -128.77490482 469.37898533 -128.5557642 468.54492283 C-127.93815429 466.19573177 -127.31944794 463.84683275 -126.70029545 461.49804783 C-126.4999268 460.73766209 -126.29955814 459.97727634 -126.09311771 459.19384861 C-125.68230392 457.63488815 -125.27133152 456.07596948 -124.86020756 454.5170908 C-123.73513294 450.24519419 -122.6197996 445.97098776 -121.5167017 441.69336033 C-118.94577381 431.74135362 -116.29051737 421.82319149 -113.48154545 411.93554783 C-110.56863809 401.67585587 -107.95089798 391.359037 -105.40366459 381.00317478 C-103.714671 374.17827162 -101.89372816 367.43142211 -99.83261967 360.71093845 C-97.41618475 352.69410646 -95.50712854 344.54529717 -93.50718021 336.41699314 C-91.76045148 329.3615977 -89.88816979 322.38105636 -87.76279545 315.43164158 C-85.62575587 308.35007905 -83.91128423 301.16753018 -82.14927006 293.98535252 C-80.54024923 287.47498289 -78.76678772 281.04885956 -76.8135767 274.63476658 C-74.97613798 268.51387201 -73.44151062 262.32883224 -71.91904545 256.12304783 C-70.23043341 249.24002516 -68.48350694 242.40330544 -66.41904545 235.62304783 C-64.36251887 228.86221669 -62.60890651 222.0468232 -60.91904545 215.18554783 C-59.01629194 207.46016392 -57.03927924 199.77086474 -54.87949467 192.11352634 C-53.05164763 185.62977467 -51.29128005 179.12896399 -49.54404545 172.62304783 C-49.24764164 171.51977146 -48.95123783 170.41649509 -48.64585209 169.27978611 C-48.03913254 167.02056055 -47.43260735 164.76128278 -46.82627201 162.50195408 C-45.06959351 155.9593194 -43.30687032 149.41831072 -41.54453373 142.87719822 C-40.0822391 137.44843959 -38.62273854 132.01896034 -37.16904545 126.58789158 C-34.27521465 115.78888327 -31.33573159 105.00642059 -28.29404545 94.24804783 C-25.937109 85.9104663 -23.74392635 77.5505192 -21.68540287 69.13476658 C-20.28483825 63.45707989 -18.69909737 57.86098409 -17.00669193 52.26440525 C-14.42115353 43.61842053 -12.15957594 34.88239747 -9.86118412 26.15673923 C-8.19498166 19.84573206 -6.50388802 13.5428841 -4.7354517 7.25976658 C-4.41133305 6.10565281 -4.08721439 4.95153904 -3.75327396 3.76245213 C-2.61712577 0.16780824 -2.61712577 0.16780824 0 0 Z " fill="#FEFEFE" transform="translate(827.9190454483032,570.8769521713257)"/>
<path d="M0 0 C1.21274597 -0.00173218 2.42549194 -0.00346436 3.67498779 -0.00524902 C23.16223843 0.00689754 41.95733524 1.29023363 61.12011719 4.78808594 C64.37917342 5.38137156 67.64004098 5.91127015 70.9140625 6.4140625 C123.18977563 14.70134564 177.8019296 40.16841077 215.6875 77.4375 C216.23349854 77.96375977 216.77949707 78.49001953 217.34204102 79.03222656 C221.61978411 83.20914345 225.46711949 87.58525166 229.125 92.3125 C229.66576172 92.96863281 230.20652344 93.62476563 230.76367188 94.30078125 C234.13484337 98.6735018 235.37862902 101.82376929 234.99536133 107.37548828 C233.4951882 117.42343615 227.34649593 123.40655267 219.6875 129.4375 C218.60925914 130.29803193 217.53113881 131.1587149 216.453125 132.01953125 C214.11271062 133.87663564 211.75973379 135.7164103 209.3984375 137.546875 C205.60673293 140.48951073 201.864576 143.49157758 198.125 146.5 C192.51113299 151.00924003 186.83399763 155.41781368 181.09375 159.765625 C178.50247712 161.76152209 176.01119201 163.85189739 173.53125 165.984375 C172.4647522 166.88941772 172.4647522 166.88941772 171.37670898 167.81274414 C169.98601053 168.99781527 168.60725514 170.19708436 167.24243164 171.41186523 C162.4948306 175.43249175 162.4948306 175.43249175 158.5390625 175.45703125 C146.69344771 171.22181829 137.64091902 163.13509233 128.5625 154.6875 C107.05973247 134.99194512 82.73140689 121.2939225 54.6875 113.4375 C54.03475098 113.24704102 53.38200195 113.05658203 52.70947266 112.86035156 C-5.03748966 96.24965187 -69.28971784 105.58904558 -121.5 134.3125 C-148.62940236 149.55887256 -176.77941635 170.39626726 -195.625 195.4375 C-196.18550049 196.1787915 -196.74600098 196.92008301 -197.32348633 197.68383789 C-225.20720991 234.88462181 -243.82380103 278.92294653 -248.3125 325.4375 C-248.40313721 326.36860596 -248.49377441 327.29971191 -248.5871582 328.2590332 C-249.48042625 338.88131215 -249.56786533 349.51088412 -249.60766602 360.1652832 C-249.61913535 362.28904917 -249.6395061 364.41278747 -249.66918945 366.53637695 C-250.17954381 403.26763505 -240.56179838 434.87397105 -217.3125 463.4375 C-216.77230225 464.10620117 -216.23210449 464.77490234 -215.67553711 465.46386719 C-211.58491684 470.34954607 -207.20185697 474.15133869 -202 477.8125 C-201.22092285 478.36631348 -200.4418457 478.92012695 -199.63916016 479.49072266 C-165.6197723 503.22438514 -127.76353054 512.59346036 -86.70874023 512.78759766 C-84.18325486 512.80400213 -81.65781281 512.83108059 -79.13256836 512.86962891 C-42.93815418 513.41705544 -2.0640608 505.58300472 28.8671875 485.50390625 C30.6875 484.4375 30.6875 484.4375 32.6875 484.4375 C32.84992188 483.43589844 32.84992188 483.43589844 33.015625 482.4140625 C33.8416454 478.75460002 35.13405686 475.32098862 36.4375 471.8125 C38.95635649 464.86374811 40.98149356 457.88374473 42.79638672 450.72241211 C44.23918622 445.05671524 45.84712786 439.46384741 47.5625 433.875 C49.92126079 426.1673283 52.06164217 418.41671698 54.125 410.625 C56.66332601 401.04096072 59.40066846 391.54164633 62.37866211 382.0847168 C62.65202393 381.20984619 62.92538574 380.33497559 63.20703125 379.43359375 C63.44526611 378.68263428 63.68350098 377.9316748 63.92895508 377.15795898 C65.00693779 373.29186264 65.81683433 369.35549553 66.6875 365.4375 C17.5175 365.4375 -31.6525 365.4375 -82.3125 365.4375 C-79.91960841 355.26771073 -77.50589974 345.12339577 -74.9375 335 C-72.5579856 325.56488143 -70.28729599 316.11218637 -68.125 306.625 C-67.19111165 302.56165997 -66.25271062 298.49938109 -65.3125 294.4375 C-65.1259082 293.62313477 -64.93931641 292.80876953 -64.74707031 291.96972656 C-64.26493322 289.89192374 -63.76224372 287.82055145 -63.25 285.75 C-62.86134766 284.13544922 -62.86134766 284.13544922 -62.46484375 282.48828125 C-60.97524965 278.544644 -59.51511232 275.2700185 -56.3125 272.4375 C-52.87961981 271.40859655 -49.55445859 271.52172243 -45.99247742 271.59571838 C-44.41798512 271.58674692 -44.41798512 271.58674692 -42.81168491 271.57759422 C-39.28856783 271.56604846 -35.76777567 271.60458754 -32.24487305 271.64282227 C-29.72200068 271.64479642 -27.19912429 271.64368916 -24.67625427 271.63972473 C-19.24176558 271.63812987 -13.80802778 271.65800263 -8.37369347 271.6973896 C-0.5167529 271.75429806 7.33990326 271.77251151 15.19702759 271.78130554 C27.94474547 271.79662311 40.69214968 271.84319959 53.43969727 271.90942383 C65.82216829 271.97368455 78.20455408 272.02322969 90.5871582 272.05297852 C91.35051545 272.05481758 92.1138727 272.05665664 92.90036199 272.05855144 C96.72993052 272.06768675 100.55949966 272.0765327 104.3890692 272.08523476 C136.15544287 272.15779297 167.92142267 272.28159753 199.6875 272.4375 C199.36976888 274.52556709 199.05105919 276.6134853 198.73193359 278.70133972 C198.55455658 279.86406497 198.37717957 281.02679022 198.19442749 282.22474957 C197.26443596 288.11874968 195.97266977 293.925087 194.6875 299.75 C194.54054688 300.41870117 194.39359375 301.08740234 194.2421875 301.77636719 C188.70842521 326.87760671 182.54693042 351.87079306 175.14453125 376.48828125 C173.79343278 381.00381744 172.60778713 385.54434434 171.5 390.125 C170.40593316 394.63975685 169.22093468 399.07349099 167.8125 403.5 C165.90837268 409.51106858 164.31883957 415.58260311 162.75 421.6875 C160.82271908 429.17966898 158.80055637 436.62271478 156.57788086 444.03222656 C154.62605712 450.56662657 152.8389362 457.14221228 151.05859375 463.72509766 C148.85910609 471.84617552 146.58359885 479.94472882 144.29125977 488.04003906 C142.85546695 493.14280178 141.46609058 498.24896184 140.19140625 503.39453125 C133.45414156 530.57810783 124.79848036 556.97292164 100.6875 573.4375 C96.69660847 575.72650687 92.59813024 577.72690429 88.4375 579.6875 C87.26364746 580.24469727 86.08979492 580.80189453 84.88037109 581.37597656 C54.8609531 595.45382059 23.11362121 605.52466781 -9.39697266 611.86474609 C-11.81654157 612.34006921 -14.22705265 612.84076665 -16.63671875 613.36328125 C-68.93676551 624.2012293 -132.34994451 624.12152705 -183.640625 608.5 C-185.72572847 607.89665091 -187.82057642 607.32096437 -189.9362793 606.83569336 C-197.89108589 605.00299078 -205.15379333 602.26763474 -212.625 599 C-213.52933273 598.60708771 -213.52933273 598.60708771 -214.45193481 598.20623779 C-243.09542353 585.73416521 -269.87487184 570.09752188 -292.83203125 548.73046875 C-294.94759748 546.77481934 -297.10493291 544.91184119 -299.3125 543.0625 C-334.82836781 512.03132426 -358.00167133 464.61156306 -365.87856007 418.74462986 C-366.28982401 416.55806149 -366.80634656 414.42474251 -367.34465027 412.2665863 C-368.42941277 407.40479969 -368.60169546 402.76363279 -368.5871582 397.79711914 C-368.59226913 396.87862183 -368.59738007 395.96012451 -368.60264587 395.01379395 C-368.61645706 392.00001359 -368.61559029 388.98646436 -368.61328125 385.97265625 C-368.6171752 383.85387591 -368.62151129 381.73509633 -368.62626648 379.61631775 C-368.63371233 375.17900055 -368.63345102 370.74176292 -368.62817383 366.30444336 C-368.62240707 360.66658149 -368.63925049 355.02905114 -368.6625185 349.39124393 C-368.67738523 345.01297658 -368.67810968 340.63478647 -368.67500877 336.25649834 C-368.67551636 334.18084499 -368.68064622 332.10518666 -368.69082069 330.02955818 C-368.7460882 317.16967769 -367.8945927 305.04440279 -365.3125 292.4375 C-364.99913696 290.8842955 -364.99913696 290.8842955 -364.67944336 289.29971313 C-364.18372563 286.91635165 -363.63841885 284.55267645 -363.0625 282.1875 C-362.85488037 281.32745361 -362.64726074 280.46740723 -362.43334961 279.58129883 C-359.8968138 269.37522291 -356.69643487 259.39013363 -353.3125 249.4375 C-352.96348633 248.39746826 -352.96348633 248.39746826 -352.60742188 247.33642578 C-339.32696623 208.23836793 -317.05696041 170.83717897 -290.64453125 139.23046875 C-288.2736785 136.39100524 -285.94453686 133.52120413 -283.62036133 130.64355469 C-281.38511689 127.87941373 -279.1383611 125.12477129 -276.88964844 122.37158203 C-275.90056548 121.15865399 -274.91386055 119.9437787 -273.93066406 118.72607422 C-262.79504995 104.9552828 -250.30942392 92.29785834 -236.3125 81.4375 C-235.15122009 80.48994429 -233.99253411 79.53920405 -232.8359375 78.5859375 C-224.34059015 71.6132255 -215.58974186 65.32387667 -206.3125 59.4375 C-205.64976074 59.01146484 -204.98702148 58.58542969 -204.30419922 58.14648438 C-185.33958344 45.99833192 -165.30738288 35.59305413 -144.3125 27.4375 C-143.32088867 27.0446582 -142.32927734 26.65181641 -141.30761719 26.24707031 C-125.60051842 20.05278856 -109.86690582 15.1097002 -93.44726562 11.18701172 C-90.47589886 10.47656811 -87.51099705 9.74390969 -84.546875 9.00390625 C-56.52573215 2.0677806 -28.8465338 -0.00099247 0 0 Z " fill="#FEFEFE" transform="translate(437.3125,557.5625)"/>
<path d="M0 0 C1.02899414 0.13422363 2.05798828 0.26844727 3.11816406 0.40673828 C56.18690035 7.50615589 114.03811597 26.04757475 154 63 C155.74915373 64.56344731 157.49908799 66.12602205 159.25 67.6875 C160.83357288 69.12473611 162.41690461 70.56223796 164 72 C166.59027556 74.31998594 169.18121063 76.6392258 171.7734375 78.95703125 C173.90963025 80.91708179 175.96654725 82.93404914 178 85 C173.00735909 103.47277137 157.60089357 116.70068722 144.52514648 129.68066406 C141.93477979 132.25270097 139.35257836 134.8327236 136.77148438 137.4140625 C135.10724261 139.07338998 133.44254463 140.73226003 131.77734375 142.390625 C131.01566391 143.15119202 130.25398407 143.91175903 129.46922302 144.69537354 C125.32469341 148.80373817 121.09586967 152.75388109 116.66725159 156.55513 C114.69089155 158.2678789 112.82979378 160.06958552 111 161.9375 C110.4225 162.52402344 109.845 163.11054687 109.25 163.71484375 C108.8375 164.13894531 108.425 164.56304688 108 165 C94.57700871 158.85758138 83.00133225 151.06939764 71.26171875 142.171875 C47.01427245 123.87087269 19.44050394 110.83544706 -10.5 105.375 C-11.49507568 105.19022095 -11.49507568 105.19022095 -12.51025391 105.00170898 C-44.37950007 99.4309432 -82.99071815 99.57734383 -112 115 C-113.04800781 115.53367187 -114.09601563 116.06734375 -115.17578125 116.6171875 C-133.03881966 126.30168822 -143.81240282 139.45462864 -150 159 C-152.50673892 170.11045456 -153.64100282 184.26388823 -147.5625 194.25 C-146.09486768 196.20770287 -144.57384816 198.12662147 -143 200 C-142.27941406 200.97066406 -141.55882812 201.94132813 -140.81640625 202.94140625 C-116.48118709 234.82444739 -64.62119112 250.01756121 -28.43228149 264.48937988 C-15.32924436 269.74161905 -2.60895576 275.64759755 10 282 C10.73444336 282.36399902 11.46888672 282.72799805 12.22558594 283.10302734 C30.69672647 292.28492844 49.12131415 304.39006993 63.40625 319.37109375 C65.07947015 321.15355319 65.07947015 321.15355319 67.5625 323 C71.17156146 325.9612812 74.02016111 329.41658061 77 333 C77.65645508 333.77996338 77.65645508 333.77996338 78.32617188 334.57568359 C89.47774064 347.87964131 99.20237389 360.43117759 102.543396 377.7384491 C102.99282402 379.96445749 103.4973035 382.17061396 104.01831055 384.38085938 C106.74000209 396.28726167 107.59978083 407.65887327 107.46655273 419.85595703 C107.43737331 422.76261955 107.44605356 425.66746912 107.45898438 428.57421875 C107.44601852 439.75096087 106.53089401 450.10411783 104 461 C103.70567414 462.34604043 103.41280172 463.69239944 103.12133789 465.0390625 C93.00823291 510.65640052 62.05112602 549.5811524 23.078125 574.55859375 C4.29379119 586.17874519 -16.06549771 595.08347021 -37 602 C-37.82773926 602.28069336 -38.65547852 602.56138672 -39.50830078 602.85058594 C-52.22520751 607.12903009 -64.96026549 609.60030678 -78.21923828 611.56054688 C-80.94253203 611.99091814 -83.63553927 612.51125175 -86.33984375 613.046875 C-100.45208695 615.59745906 -114.89264656 615.21711186 -129.18139648 615.24023438 C-132.76635522 615.2498759 -136.35072348 615.28095257 -139.93554688 615.3125 C-159.84816257 615.40423479 -179.45231023 613.7913908 -198.9375 609.5625 C-199.97648437 609.34352051 -201.01546875 609.12454102 -202.0859375 608.89892578 C-204.1387616 608.46469893 -206.19074046 608.0264497 -208.24169922 607.58349609 C-210.62660967 607.07898769 -213.01265849 606.61538751 -215.41015625 606.17578125 C-240.06637686 601.47907906 -264.48801463 591.86332054 -287 581 C-288.03560059 580.50274414 -289.07120117 580.00548828 -290.13818359 579.49316406 C-305.69737728 571.93413816 -320.02691666 563.18446308 -334 553 C-335.00595215 552.27780273 -335.00595215 552.27780273 -336.03222656 551.54101562 C-353.30046524 539.05685363 -368.18750291 523.58785771 -378.35546875 504.78515625 C-378.86630005 503.84168335 -378.86630005 503.84168335 -379.38745117 502.87915039 C-380.15428443 500.526693 -379.85244341 499.29541135 -379 497 C-377.609375 495.5 -377.609375 495.5 -375.75 494 C-371.93361913 490.81284322 -368.26379989 487.51098005 -364.625 484.125 C-359.96159767 479.80143534 -355.26303904 475.52181619 -350.52734375 471.27734375 C-347.66917758 468.7019019 -344.83293383 466.10310304 -342 463.5 C-337.50210042 459.36839986 -332.98526949 455.25940997 -328.4296875 451.19140625 C-326.77240253 449.69665244 -325.13232835 448.18264787 -323.5078125 446.65234375 C-317.31943064 440.87844853 -310.53794058 434.72095475 -302 433 C-300.91525391 432.70802734 -300.91525391 432.70802734 -299.80859375 432.41015625 C-296.7880958 431.96728258 -294.92243036 432.04243771 -292 433 C-289.52456689 435.49831847 -287.56107281 438.04421343 -285.51806641 440.89038086 C-272.22382919 459.39217507 -253.72325148 473.01669445 -234 484 C-233.23623047 484.4316748 -232.47246094 484.86334961 -231.68554688 485.30810547 C-201.56866818 502.20835393 -168.19524152 512.45177634 -133.49682617 512.26074219 C-131.20008664 512.25005855 -128.90413736 512.2606875 -126.60742188 512.2734375 C-97.73664281 512.30157835 -70.13371728 506.1563073 -44.4375 492.8125 C-43.65826172 492.4088623 -42.87902344 492.00522461 -42.07617188 491.58935547 C-37.6955133 489.21569038 -34.37237357 486.7390666 -31 483 C-30.3915625 482.37738281 -29.783125 481.75476562 -29.15625 481.11328125 C-17.08070101 467.98396973 -14.66035074 451.9785112 -14.4375 434.75 C-14.41067139 433.57840332 -14.38384277 432.40680664 -14.35620117 431.19970703 C-14.40040739 420.91342625 -17.07622287 411.6717611 -23.8125 403.6875 C-24.41707031 402.94886719 -25.02164062 402.21023438 -25.64453125 401.44921875 C-32.76220803 394.04825135 -40.26252614 389.39849039 -49.4375 384.8125 C-50.7304571 384.15654278 -52.02309541 383.49995685 -53.31542969 382.84277344 C-57.20003085 380.87437079 -61.09759975 378.93283303 -65 377 C-66.67763428 376.16831299 -66.67763428 376.16831299 -68.38916016 375.31982422 C-86.8362168 366.22747622 -105.61302648 357.91806559 -124.58178711 349.97875977 C-178.14087247 327.53599332 -238.35868111 298.55199324 -262.90673828 241.90771484 C-277.51037727 205.45332841 -274.17268718 164.5880195 -262 128 C-261.77086914 127.30729004 -261.54173828 126.61458008 -261.30566406 125.90087891 C-245.08681429 78.29184601 -203.59452753 45.38325208 -160.30053711 23.94482422 C-143.8460306 15.96345291 -127.47248992 9.77965359 -109.64990234 5.62011719 C-107.22529285 5.05272193 -104.80989586 4.45685615 -102.39453125 3.8515625 C-97.95373966 2.76427582 -93.49414823 1.83827219 -89 1 C-88.19804199 0.84901855 -87.39608398 0.69803711 -86.56982422 0.54248047 C-58.73486592 -4.41296534 -27.97129787 -3.74122386 0 0 Z " fill="#FEFEFE" transform="translate(1752,560)"/>
<path d="M0 0 C1.79403511 -0.01925285 1.79403511 -0.01925285 3.62431335 -0.03889465 C4.93140762 -0.04628159 6.23850189 -0.05366852 7.58520508 -0.0612793 C8.25083277 -0.06535482 8.91646046 -0.06943035 9.60225868 -0.07362938 C13.13913286 -0.09454067 16.6759679 -0.10880891 20.21289062 -0.11816406 C23.83148567 -0.12911763 27.44944665 -0.16337044 31.06782055 -0.20333576 C33.8760931 -0.22979027 36.6842229 -0.237882 39.49260902 -0.24144554 C41.4631141 -0.24856402 43.43352052 -0.2748999 45.40385437 -0.30183411 C56.44971676 -0.27571011 66.68466137 1.7739184 76.41723633 7.17700195 C84.07736969 16.11630322 87.14099084 26.38835648 86.82739258 38.00512695 C85.37518843 49.23550573 76.40819049 59.08784662 68.07348633 66.1809082 C60.37445571 71.96650327 53.33317092 76.78520824 43.41723633 76.17700195 C44.05169678 77.30960449 44.05169678 77.30960449 44.69897461 78.46508789 C46.30026026 81.32668108 47.89906891 84.18963101 49.49633789 87.0534668 C50.18190744 88.28153885 50.8683982 89.5090972 51.5559082 90.73608398 C53.87076053 94.86829844 56.14942913 99.01877304 58.41723633 103.17700195 C59.02148438 104.25014648 59.62573242 105.32329102 60.24829102 106.42895508 C60.79646484 107.4440918 61.34463867 108.45922852 61.90942383 109.50512695 C62.39523926 110.38587891 62.88105469 111.26663086 63.3815918 112.17407227 C64.41723633 115.17700195 64.41723633 115.17700195 64.41723633 124.17700195 C57.15723633 124.17700195 49.89723633 124.17700195 42.41723633 124.17700195 C41.36536133 121.83928711 41.36536133 121.83928711 40.29223633 119.4543457 C31.86994179 96.46455661 31.86994179 96.46455661 16.78051758 78.84887695 C7.63645153 76.08575328 -1.09760758 75.40419132 -10.58276367 75.17700195 C-10.62014648 76.00055176 -10.6575293 76.82410156 -10.69604492 77.67260742 C-11.23298273 87.09665552 -12.70373455 96.07005841 -14.58276367 105.30200195 C-14.85956126 106.69768558 -15.135606 108.09351873 -15.41088867 109.48950195 C-16.38665993 114.40830423 -17.36623084 119.31087061 -18.58276367 124.17700195 C-24.52276367 124.17700195 -30.46276367 124.17700195 -36.58276367 124.17700195 C-36.58276367 96.81976759 -27.70298392 68.15970011 -19.58276367 42.17700195 C-19.3366333 41.3870282 -19.09050293 40.59705444 -18.83691406 39.78314209 C-16.80571983 33.26484684 -14.76084056 26.75093584 -12.70776367 20.23950195 C-12.41287048 19.30285706 -12.11797729 18.36621216 -11.81414795 17.40118408 C-10.97245129 14.73283158 -10.12612222 12.06599865 -9.27807617 9.3996582 C-9.02108948 8.58420029 -8.76410278 7.76874237 -8.49932861 6.92857361 C-6.30374635 0.05871032 -6.30374635 0.05871032 0 0 Z " fill="#FAFAFA" transform="translate(1597.582763671875,1273.822998046875)"/>
<path d="M0 0 C2.68943648 0.25714522 5.37567547 0.5302612 8.0625 0.8125 C8.81466797 0.88275391 9.56683594 0.95300781 10.34179688 1.02539062 C15.4336508 1.57645707 19.52379821 2.44217041 24 5 C26.01171875 7.66796875 26.01171875 7.66796875 27.6875 11.1875 C28.00074219 11.84516357 28.31398438 12.50282715 28.63671875 13.18041992 C32.3218641 21.21811976 35.38132384 29.54283583 38.5 37.8125 C38.7734726 38.53698334 39.04694519 39.26146667 39.32870483 40.00790405 C40.11155712 42.09259267 40.88580534 44.18022903 41.65625 46.26953125 C42.33397461 48.10414917 42.33397461 48.10414917 43.02539062 49.97583008 C44 53 44 53 44 56 C45.19390875 55.00766026 46.37966913 54.00551846 47.5625 53 C48.22378906 52.443125 48.88507813 51.88625 49.56640625 51.3125 C51.62003112 49.36106192 53.43241039 47.39202999 55.27734375 45.25 C59.60651334 40.23269279 64.31110516 35.63738344 69.0390625 31 C72.96447434 27.12005625 76.67722609 23.13924704 80.28076172 18.95947266 C83.09296105 15.75431619 86.06153156 12.7150551 89.0625 9.6875 C89.64837891 9.08099609 90.23425781 8.47449219 90.83789062 7.84960938 C95.94256695 2.69960851 99.94445243 -0.10704744 107.3984375 -0.29296875 C109.39083688 -0.2731767 111.38313274 -0.23761795 113.375 -0.1875 C114.90833984 -0.16719727 114.90833984 -0.16719727 116.47265625 -0.14648438 C118.98232049 -0.11130217 121.4908809 -0.06207539 124 0 C123.42242882 2.70966903 122.83799529 5.41758886 122.25 8.125 C122.09273437 8.86621094 121.93546875 9.60742188 121.7734375 10.37109375 C120.74171879 15.09319091 119.52496313 19.72666694 118.171875 24.3671875 C115.51938781 33.51245902 113.27511339 42.75498553 111 52 C108.48353069 62.22577392 105.93080362 72.41271049 102.98242188 82.52441406 C101.07683412 89.26595165 99.42966704 96.07435912 97.75 102.875 C97.38303672 104.35292027 97.01585028 105.83078516 96.6484375 107.30859375 C95.76306435 110.87176418 94.88066865 114.4356635 94 118 C78.83699018 122.35061488 78.83699018 122.35061488 72 122 C72.65880212 112.50943028 74.68391821 103.40162944 76.6875 94.125 C77.04739788 92.43777421 77.40676764 90.75043569 77.765625 89.06298828 C79.30066727 81.85735576 80.85526658 74.65599339 82.42085266 67.4569397 C82.85026449 65.48174894 83.27830316 63.50625982 83.70629883 61.53076172 C84.22404264 59.14605061 84.74582681 56.76221205 85.2722168 54.37939453 C85.50207275 53.32349121 85.73192871 52.26758789 85.96875 51.1796875 C86.16919922 50.26944824 86.36964844 49.35920898 86.57617188 48.42138672 C87.11494271 45.75301684 87.11494271 45.75301684 87 42 C78.24111724 51.42918818 78.24111724 51.42918818 69.6953125 61.05078125 C59.63130474 72.62207127 49.50817303 83.10243361 37 92 C33.93164295 89.40540411 32.67595267 86.46451355 31.07421875 82.8203125 C30.80414505 82.2117038 30.53407135 81.60309509 30.2558136 80.9760437 C29.39314948 79.02851527 28.54004095 77.07697815 27.6875 75.125 C26.84694274 73.21718018 26.00440974 71.31024397 25.16140747 69.40350342 C24.60408744 68.14153405 24.04831631 66.87887949 23.49411011 65.61553955 C22.11464568 62.47880887 20.70911014 59.35879688 19.24462891 56.26074219 C18.69597168 55.09961914 18.14731445 53.93849609 17.58203125 52.7421875 C17.08550049 51.70690918 16.58896973 50.67163086 16.07739258 49.60498047 C15 47 15 47 15 44 C14.34 44 13.68 44 13 44 C12.73574219 44.69351562 12.47148438 45.38703125 12.19921875 46.1015625 C10.88448626 49.27918955 9.35042279 52.29915441 7.8125 55.375 C-2.21469685 76.48033619 -6.49200206 100.40596762 -12 123 C-17.94 123 -23.88 123 -30 123 C-30 117.68857595 -29.71807258 113.67355907 -28.71484375 108.57421875 C-28.57861099 107.87785309 -28.44237823 107.18148743 -28.30201721 106.46401978 C-27.85581254 104.20335589 -27.39789772 101.94531352 -26.9375 99.6875 C-26.78071777 98.91022552 -26.62393555 98.13295105 -26.46240234 97.3321228 C-23.56979906 83.04586439 -20.04965542 69.00402773 -16 55 C-15.40482155 52.91149434 -14.80976993 50.82295253 -14.21484375 48.734375 C-11.30067581 38.57707936 -8.23284731 28.47945097 -5.0012207 18.41894531 C-3.06512668 12.34185347 -1.41546657 6.22060306 0 0 Z " fill="#FCFCFC" transform="translate(1186,1275)"/>
<path d="M0 0 C1.06860764 -0.00570007 2.13721527 -0.01140015 3.23820496 -0.01727295 C5.48797633 -0.02667141 7.73776115 -0.03323627 9.98754883 -0.03710938 C13.39754615 -0.04681686 16.80694049 -0.07789108 20.21679688 -0.109375 C22.41536105 -0.11590657 24.61392948 -0.12115644 26.8125 -0.125 C27.81602005 -0.1373468 28.8195401 -0.1496936 29.85346985 -0.16241455 C39.30469301 -0.13320584 50.86867775 1.23177624 58.60546875 7.203125 C67.55565684 17.33579808 68.42284652 28.97089473 68.08203125 41.921875 C67.66997678 48.4779148 65.74308513 53.10645847 61.60546875 58.203125 C61.05246094 58.92242188 60.49945312 59.64171875 59.9296875 60.3828125 C58.24429734 62.43627637 56.48141275 64.32317257 54.60546875 66.203125 C54.0228125 66.79738281 53.44015625 67.39164063 52.83984375 68.00390625 C43.81787294 76.55203406 34.01442859 81.27078563 21.60546875 81.203125 C20.00518131 81.22604979 18.40492162 81.25095774 16.8046875 81.27734375 C3.05380631 81.43956265 -10.66303196 80.88300961 -24.39453125 80.203125 C-24.48605469 81.48960938 -24.57757812 82.77609375 -24.671875 84.1015625 C-25.47360057 92.11881815 -27.2902892 99.95598668 -28.95703125 107.828125 C-29.29018908 109.4204735 -29.62287517 111.01292077 -29.95507812 112.60546875 C-30.76193044 116.472726 -31.57841634 120.33776614 -32.39453125 124.203125 C-38.33453125 124.203125 -44.27453125 124.203125 -50.39453125 124.203125 C-50.39453125 116.96892895 -49.38998752 110.64172587 -48.01953125 103.578125 C-47.89092712 102.91228394 -47.762323 102.24644287 -47.62982178 101.5604248 C-42.79111681 76.76197042 -35.49986423 52.48159657 -28.22265625 28.30859375 C-25.51262129 19.30247437 -22.95516167 10.25262567 -20.39453125 1.203125 C-13.56710843 0.32477914 -6.88021725 0.02896226 0 0 Z " fill="#FAFAFA" transform="translate(1360.39453125,1273.796875)"/>
<path d="M0 0 C2.73275503 0.21122744 5.10331438 0.8038934 7.73828125 1.5625 C10.11274428 2.08577591 12.48775698 2.60656311 14.86328125 3.125 C16.82311662 3.59798567 18.78201412 4.07496634 20.73828125 4.5625 C22.0933693 10.54796049 23.36087218 16.54450091 24.54296875 22.56640625 C24.70699692 23.39922119 24.87102509 24.23203613 25.0400238 25.09008789 C25.56631267 27.76802943 26.09016533 30.44643694 26.61328125 33.125 C26.79224945 34.03990204 26.97121765 34.95480408 27.15560913 35.89743042 C29.43502928 47.57158353 31.65347168 59.24415352 33.50244141 70.99560547 C34.11278014 74.8745697 34.73615031 78.71670767 35.640625 82.5390625 C38.72263031 96.03171246 38.0102489 109.80512082 37.73828125 123.5625 C34.92571844 123.58934312 32.11340884 123.60926188 29.30078125 123.625 C28.49833984 123.63337891 27.69589844 123.64175781 26.86914062 123.65039062 C24.82532904 123.6590143 22.78144223 123.6147815 20.73828125 123.5625 C18.34108276 121.16530151 18.63362631 115.80027512 18.17578125 112.5625 C18.03720703 111.64082031 17.89863281 110.71914062 17.75585938 109.76953125 C17.62501953 108.85558594 17.49417969 107.94164062 17.359375 107 C17.24005615 106.17371094 17.1207373 105.34742188 16.99780273 104.49609375 C16.64718554 100.53276715 16.73828125 96.54130511 16.73828125 92.5625 C-5.37171875 92.5625 -27.48171875 92.5625 -50.26171875 92.5625 C-51.25171875 95.8625 -52.24171875 99.1625 -53.26171875 102.5625 C-56.58710274 111.53809396 -60.39213368 119.12770746 -69.26171875 123.5625 C-70.78320201 123.64622659 -72.30827653 123.66980027 -73.83203125 123.66015625 C-74.72792969 123.65693359 -75.62382812 123.65371094 -76.546875 123.65039062 C-77.95259766 123.63782227 -77.95259766 123.63782227 -79.38671875 123.625 C-80.33160156 123.62048828 -81.27648437 123.61597656 -82.25 123.61132812 C-84.58730262 123.59952357 -86.92447936 123.58305759 -89.26171875 123.5625 C-78.74249018 102.27636414 -63.87685747 82.82765543 -49.86523438 63.74707031 C-48.18475324 61.45764504 -46.51214389 59.16259383 -44.83984375 56.8671875 C-37.35947422 46.62793012 -29.66961842 36.57111641 -21.84863281 26.59033203 C-19.93708359 24.14766621 -18.03261508 21.69972954 -16.13769531 19.24414062 C-14.92732603 17.67755806 -13.70795236 16.11794525 -12.48828125 14.55859375 C-10.20665365 11.57440222 -10.20665365 11.57440222 -8.22265625 8.28515625 C-3.53426185 0.8789874 -3.53426185 0.8789874 0 0 Z " fill="#FCFCFC" transform="translate(572.26171875,1274.4375)"/>
<path d="M0 0 C2.75819574 0.20841672 4.94446622 0.89199871 7.5546875 1.80859375 C9.92653993 2.34357824 12.30169523 2.86409756 14.6796875 3.37109375 C16.63903189 3.84610924 18.59754319 4.32459344 20.5546875 4.80859375 C23.34808921 16.09498583 25.38444075 27.4934611 27.4296875 38.93359375 C27.95979901 41.87876668 28.49100877 44.82374021 29.02226257 47.76870728 C29.37314344 49.71425895 29.72366125 51.65987615 30.07380676 53.6055603 C31.71392349 62.71490681 33.39702982 71.8158542 35.09521484 80.91455078 C35.27648926 81.88763184 35.45776367 82.86071289 35.64453125 83.86328125 C35.87450806 85.09280518 35.87450806 85.09280518 36.10913086 86.34716797 C36.25616455 87.15943848 36.40319824 87.97170898 36.5546875 88.80859375 C36.73644531 89.75766602 36.91820312 90.70673828 37.10546875 91.68457031 C37.59367031 95.07969378 37.66751856 98.30877499 37.65234375 101.73828125 C37.64750977 103.671875 37.64750977 103.671875 37.64257812 105.64453125 C37.63422483 106.99088611 37.62575991 108.33724027 37.6171875 109.68359375 C37.6121658 111.05338379 37.60760407 112.4231756 37.60351562 113.79296875 C37.59176013 117.13152939 37.57382555 120.47006726 37.5546875 123.80859375 C31.9446875 123.80859375 26.3346875 123.80859375 20.5546875 123.80859375 C20.0803125 121.29234375 19.6059375 118.77609375 19.1171875 116.18359375 C18.96967041 115.42353027 18.82215332 114.6634668 18.67016602 113.88037109 C17.3776657 106.78165563 17.08023428 100.16624861 16.5546875 92.80859375 C-5.5553125 92.80859375 -27.6653125 92.80859375 -50.4453125 92.80859375 C-52.52545682 99.04362352 -52.52545682 99.04362352 -54.5859375 105.28515625 C-57.26512141 112.88875565 -60.14909317 118.68825749 -67.2565918 122.87573242 C-69.75703892 123.94145562 -71.5024224 124.0386308 -74.2109375 124.00390625 C-75.10039063 123.99746094 -75.98984375 123.99101563 -76.90625 123.984375 C-78.28683594 123.95923828 -78.28683594 123.95923828 -79.6953125 123.93359375 C-81.09910156 123.92005859 -81.09910156 123.92005859 -82.53125 123.90625 C-84.83619907 123.88273011 -87.1406241 123.84986228 -89.4453125 123.80859375 C-87.89979233 119.35922522 -85.51351033 115.64483697 -82.89453125 111.76953125 C-82.21901215 110.75827682 -82.21901215 110.75827682 -81.52984619 109.72659302 C-80.06889887 107.54237993 -78.60118831 105.36281843 -77.1328125 103.18359375 C-76.12223851 101.67789456 -75.11190412 100.17203452 -74.10180664 98.66601562 C-71.65086653 95.0147861 -69.19375896 91.36775616 -66.73461914 87.7220459 C-65.0032343 85.15250818 -63.27945383 82.57788959 -61.5546875 80.00390625 C-55.04868064 70.34262152 -48.16208085 61.04717072 -41.01855469 51.84960938 C-38.47670389 48.55198792 -35.99438662 45.21046703 -33.5078125 41.87109375 C-28.63211623 35.33617149 -23.66064512 28.88020027 -18.5949707 22.49121094 C-15.72464471 18.84854823 -12.98996921 15.19251514 -10.46484375 11.30078125 C-3.90951838 1.29276406 -3.90951838 1.29276406 0 0 Z " fill="#FCFCFC" transform="translate(814.4453125,1274.19140625)"/>
<path d="M0 0 C-1.38629244 3.12324544 -2.99511571 5.24190707 -5.4140625 7.64453125 C-6.09339844 8.32193359 -6.77273438 8.99933594 -7.47265625 9.69726562 C-8.18292969 10.39529297 -8.89320313 11.09332031 -9.625 11.8125 C-10.31207031 12.49892578 -10.99914062 13.18535156 -11.70703125 13.89257812 C-15.71007969 17.86182972 -19.82172031 21.64904473 -24.08886719 25.33178711 C-27.07059889 27.9345174 -29.93408512 30.6592709 -32.8125 33.375 C-37.94189675 38.18337611 -43.18127038 42.73167457 -48.6953125 47.09765625 C-49.45585937 47.72542969 -50.21640625 48.35320312 -51 49 C-51.80179687 49.55558594 -52.60359375 50.11117188 -53.4296875 50.68359375 C-55.19916635 52.7991148 -55.19916635 52.7991148 -54.91992188 54.92016602 C-54.42244638 57.34377135 -53.76123261 59.64590458 -53 62 C-52.75668945 62.75667969 -52.51337891 63.51335937 -52.26269531 64.29296875 C-51.43435344 66.7172836 -50.54320451 69.10829476 -49.625 71.5 C-49.28702393 72.3856665 -48.94904785 73.27133301 -48.60083008 74.18383789 C-43.61985465 86.89880965 -37.68603685 99.39238571 -31.15625 111.38671875 C-29.87765011 114.27652728 -29.68527546 116.23679458 -29.8125 119.375 C-29.85310547 120.68597656 -29.85310547 120.68597656 -29.89453125 122.0234375 C-29.92933594 122.67570312 -29.96414063 123.32796875 -30 124 C-35.43589638 124.36853535 -40.254486 123.96810478 -45.5625 122.6875 C-46.59503906 122.44386719 -47.62757813 122.20023438 -48.69140625 121.94921875 C-59.25442674 115.72614056 -64.34119991 100.90683743 -69.5 90.3125 C-70.32978503 88.62778986 -71.16050784 86.94354127 -71.9921875 85.25976562 C-74.00562609 81.17840952 -76.00632897 77.09104614 -78 73 C-82.29053332 73 -84.31351677 75.54017363 -87.375 78.25 C-88.5073092 79.23495389 -89.64011456 80.21933772 -90.7734375 81.203125 C-91.3207251 81.68233398 -91.8680127 82.16154297 -92.43188477 82.65527344 C-93.81397226 83.84047318 -95.24190077 84.97176469 -96.67578125 86.09375 C-107.83226013 95.24393772 -114.56532264 110.26129057 -118 124 C-123.94 124 -129.88 124 -136 124 C-131.19585793 94.52885044 -124.02205614 65.38788715 -115.76757812 36.69775391 C-114.74053926 33.08809122 -113.73848477 29.47155717 -112.734375 25.85546875 C-112.11424667 23.62826678 -111.49364372 21.40119775 -110.87280273 19.17419434 C-110.45926028 17.68902415 -110.04665485 16.20359271 -109.63500977 14.71789551 C-109.05671853 12.63264536 -108.47417658 10.54862695 -107.890625 8.46484375 C-107.55063477 7.244021 -107.21064453 6.02319824 -106.86035156 4.76538086 C-106 2 -106 2 -105 1 C-102.13732433 0.92674832 -99.299281 0.90761795 -96.4375 0.9375 C-95.63119141 0.94201172 -94.82488281 0.94652344 -93.99414062 0.95117188 C-91.99606244 0.96299482 -89.99802217 0.98093086 -88 1 C-87.79984577 6.95765181 -88.57331522 12.54863346 -89.53125 18.421875 C-89.68662231 19.40367737 -89.84199463 20.38547974 -90.0020752 21.39703369 C-90.49631297 24.51552143 -90.99772258 27.63279794 -91.5 30.75 C-92.00119722 33.88164171 -92.50084557 37.01351496 -92.9979248 40.14581299 C-93.30688473 42.09053028 -93.6184045 44.03484297 -93.93273926 45.97869873 C-94.14295715 47.29586884 -94.14295715 47.29586884 -94.35742188 48.63964844 C-94.48177612 49.41129333 -94.60613037 50.18293823 -94.73425293 50.97796631 C-95.06515255 53.15583332 -95.06515255 53.15583332 -95 56 C-88.15481945 50.58440261 -81.40890395 45.05457004 -74.67749023 39.4987793 C-69.01040891 34.82441686 -63.31785939 30.18246092 -57.61230469 25.55517578 C-53.77476161 22.44279998 -49.94532328 19.32102359 -46.125 16.1875 C-44.83142578 15.135625 -44.83142578 15.135625 -43.51171875 14.0625 C-41.81046776 12.66551629 -40.12586354 11.24805466 -38.45703125 9.8125 C-26.13211201 -0.58247064 -15.5844891 -0.55920055 0 0 Z " fill="#FBFBFB" transform="translate(381,1274)"/>
<path d="M0 0 C5.94 0 11.88 0 18 0 C16.87488077 7.87583458 16.87488077 7.87583458 16.03198242 11.48803711 C15.8447612 12.29675766 15.65753998 13.10547821 15.46464539 13.93870544 C15.2636171 14.79295609 15.06258881 15.64720673 14.85546875 16.52734375 C14.64440994 17.43392227 14.43335114 18.34050079 14.21589661 19.27455139 C13.76928062 21.19028025 13.32122878 23.10567488 12.87182617 25.02075195 C12.19710771 27.89654985 11.52686063 30.77335966 10.85742188 33.65039062 C10.4195437 35.52610539 9.98139492 37.401757 9.54296875 39.27734375 C9.32825424 40.19789551 9.11353973 41.11844727 8.89231873 42.06689453 C7.90997172 46.24943328 6.90401239 50.42027949 5.79907227 54.57226562 C3.82497634 61.99993402 2.34672811 68.9115376 2.5625 76.625 C2.58006348 77.50744385 2.59762695 78.3898877 2.61572266 79.29907227 C2.83061111 90.45356265 2.83061111 90.45356265 6 101 C13.054238 107.53170185 21.39835698 108.69334752 30.640625 108.4765625 C40.25543333 107.79952329 49.50293416 101.88446853 56 95 C60.75245128 89.48671362 63.5744126 83.9763885 65.9375 77.125 C66.27322021 76.17810303 66.60894043 75.23120605 66.95483398 74.25561523 C70.2237137 64.79671289 72.75773376 55.16089672 75.2734375 45.48046875 C76.91123623 39.22407761 78.7657819 33.04922781 80.6875 26.875 C83.45190516 17.97511296 85.84136862 9.0662518 88 0 C93.94 0 99.88 0 106 0 C104.48276665 10.84422572 102.2866471 21.44962832 99.875 32.125 C99.67780365 33.00106903 99.4806073 33.87713806 99.2774353 34.77975464 C85.29019334 96.62456691 85.29019334 96.62456691 63 119 C62.50113281 119.52207031 62.00226563 120.04414062 61.48828125 120.58203125 C54.24128999 127.45525219 43.11354345 129.12296471 33.53515625 129.1328125 C32.32279297 129.13410156 31.11042969 129.13539063 29.86132812 129.13671875 C28.60771484 129.13285156 27.35410156 129.12898438 26.0625 129.125 C24.81275391 129.12886719 23.56300781 129.13273437 22.27539062 129.13671875 C7.46973781 129.12099315 -2.26153753 125.92894131 -13.125 115.5625 C-22.14627865 104.6873072 -20.9565228 86.369139 -20 73 C-19.41548466 67.5822342 -18.24337612 62.29860185 -17 57 C-16.64403806 55.40636008 -16.28859435 53.81260434 -15.93359375 52.21875 C-13.69921907 42.37521943 -11.15907688 32.61165801 -8.5 22.875 C-8.22768555 21.85672119 -7.95537109 20.83844238 -7.67480469 19.78930664 C-5.73658578 12.82845878 -3.12469068 6.51690624 0 0 Z " fill="#FBFBFB" transform="translate(1054,1275)"/>
<path d="M0 0 C5.61 0 11.22 0 17 0 C16.3999452 6.38563985 15.34579395 12.45428754 13.85546875 18.6875 C13.64440994 19.58887695 13.43335114 20.49025391 13.21589661 21.41894531 C12.54466917 24.28047677 11.86623852 27.14024191 11.1875 30 C10.74365956 31.88660564 10.3002966 33.77332368 9.85742188 35.66015625 C9.41934898 37.52345588 8.98119852 39.38673727 8.54296875 41.25 C8.32829956 42.16337631 8.11363037 43.07675262 7.89245605 44.01780701 C6.88173949 48.3065109 5.85834035 52.5909847 4.796875 56.86743164 C4.61095291 57.62697144 4.42503082 58.38651123 4.23347473 59.16906738 C3.89264927 60.55888533 3.54583985 61.94725887 3.19120789 63.33361816 C0.65441172 73.7512827 1.23946825 84.6874421 4 95 C4.20625 96.093125 4.4125 97.18625 4.625 98.3125 C7.12574666 103.20032301 11.89366294 105.17766293 16.8515625 107.11328125 C25.69736236 109.60459213 34.76799624 108.70083956 43.0390625 104.8203125 C55.06540189 97.42681098 61.75152994 87.77646895 66 74.5 C66.33 73.4996875 66.66 72.499375 67 71.46875 C69.53598549 63.70229444 71.79663251 55.86612381 74 48 C74.43237307 46.46075188 74.86483198 44.92152788 75.29736328 43.38232422 C76.23690733 40.03685505 77.17619106 36.69131288 78.11523438 33.34570312 C78.35330811 32.49758057 78.59138184 31.64945801 78.83666992 30.77563477 C79.32301466 29.04144687 79.8086851 27.30706973 80.29370117 25.57250977 C81.00757663 23.02042297 81.72425693 20.46913723 82.44140625 17.91796875 C82.65398575 17.15526169 82.86656525 16.39255463 83.08558655 15.60673523 C84.56774845 10.34671285 86.2412695 5.17430113 88 0 C93.61 0 99.22 0 105 0 C104.45698564 7.88017272 103.19655792 15.16773683 101.25 22.8125 C100.70451368 25.01532436 100.16026672 27.21845596 99.6171875 29.421875 C99.34487305 30.52080078 99.07255859 31.61972656 98.79199219 32.75195312 C97.59152992 37.67518062 96.48264174 42.61773299 95.375 47.5625 C94.96152345 49.37643575 94.54747756 51.19024183 94.1328125 53.00390625 C93.43743232 56.0489334 92.76476095 59.09683915 92.1171875 62.15234375 C87.44908525 82.86441906 78.90425922 101.73031236 64 117 C63.39800781 117.66128906 62.79601562 118.32257813 62.17578125 119.00390625 C53.46022285 127.75727619 42.53873054 129.23682167 30.74536133 129.38500977 C14.20354685 129.33927409 0.87980044 129.17020152 -11.828125 117.375 C-20.44103434 107.59518036 -20.331346 97.72007213 -20.25 85.125 C-20.25773437 83.93519531 -20.26546875 82.74539063 -20.2734375 81.51953125 C-20.24761091 69.70386684 -18.09025834 58.69081711 -15.3125 47.25 C-15.05412354 46.18450928 -14.79574707 45.11901855 -14.52954102 44.02124023 C-12.63425515 36.32987289 -10.60648662 28.68116268 -8.4375 21.0625 C-8.1691333 20.09924805 -7.9007666 19.13599609 -7.62426758 18.14355469 C-5.73521094 11.66840456 -3.16127057 5.9604811 0 0 Z " fill="#FBFBFB" transform="translate(399,1275)"/>
<path d="M0 0 C5.61 0 11.22 0 17 0 C16.42384921 7.35597172 15.16705412 14.22524048 13.375 21.375 C13.11501221 22.43557617 12.85502441 23.49615234 12.5871582 24.58886719 C11.73317294 28.06138696 10.86796887 31.53095025 10 35 C9.68627441 36.25651367 9.37254883 37.51302734 9.04931641 38.80761719 C6.5101052 48.97215269 6.5101052 48.97215269 5.27294922 53.87255859 C4.84973389 55.55212646 4.84973389 55.55212646 4.41796875 57.265625 C4.16813232 58.25336914 3.9182959 59.24111328 3.66088867 60.25878906 C1.135774 70.73237146 1.54886062 80.80368933 3.5546875 91.35546875 C4.1084582 94.6440895 4.15108031 97.67623315 4 101 C4.7734375 101.37125 4.7734375 101.37125 5.5625 101.75 C8.16141874 103.08277884 10.63387075 104.56838921 13.12109375 106.09765625 C20.04234631 109.42158419 29.88259458 109.21223104 37.078125 107.09375 C47.42121613 102.5867047 57.60587288 95.23372996 62.49926758 84.8046875 C63.89267767 81.02410533 65.12962214 77.22517039 66.3125 73.375 C66.77171597 71.93979037 67.23219674 70.5049849 67.69384766 69.07055664 C71.85159911 56.01156392 75.5752238 42.81432361 79.20825195 29.60107422 C81.94115825 19.66271809 84.87332165 9.82270097 88 0 C93.61 0 99.22 0 105 0 C104.32915824 7.45818193 102.91880822 14.62834039 101.3125 21.9375 C100.9110376 23.77489746 100.9110376 23.77489746 100.50146484 25.64941406 C99.94407341 28.19049205 99.38416156 30.73101843 98.82177734 33.27099609 C98.05118463 36.76773794 97.2995144 40.26805724 96.55078125 43.76953125 C91.30140133 67.90656307 85.03196945 94.17519166 68 113 C67.27425781 113.85207031 66.54851562 114.70414063 65.80078125 115.58203125 C59.68593943 122.30737257 53.68299279 125.47040183 45 128 C44.40388916 128.17958252 43.80777832 128.35916504 43.19360352 128.54418945 C40.4317787 129.11807114 37.84067768 129.12979038 35.01953125 129.1328125 C33.85486328 129.13410156 32.69019531 129.13539063 31.49023438 129.13671875 C30.27658203 129.13285156 29.06292969 129.12898438 27.8125 129.125 C26.02102539 129.13080078 26.02102539 129.13080078 24.19335938 129.13671875 C8.57338692 129.1195256 -2.83950716 126.64208882 -14.25 115.25 C-21.73537614 107.42693772 -20.45153392 93.4757146 -20.5 83.375 C-20.50334351 82.70824249 -20.50668701 82.04148499 -20.51013184 81.35452271 C-20.51429004 67.35114228 -17.86211928 54.45048729 -14 41 C-13.61570971 39.60196787 -13.23270058 38.20358228 -12.8515625 36.8046875 C-12.22976373 34.58113509 -11.58857817 32.36284729 -10.921875 30.15234375 C-9.87828558 26.58379859 -9.0121537 22.9854247 -8.125 19.375 C-6.28201624 12.33480205 -3.468945 6.38601239 0 0 Z " fill="#FBFBFB" transform="translate(1455,1275)"/>
<path d="M0 0 C5.61 0 11.22 0 17 0 C16.41502014 8.45041559 15.33573735 16.6201105 13.75 24.9375 C13.52965088 26.10829102 13.30930176 27.27908203 13.08227539 28.48535156 C11.05296359 39.07494458 8.66863205 49.55453895 6 60 C5.68417969 61.2375 5.36835937 62.475 5.04296875 63.75 C4.05728482 67.50818212 3.03604062 71.25548758 2 75 C1.73396973 75.96583008 1.46793945 76.93166016 1.19384766 77.92675781 C0.27876357 81.24387507 -0.64103479 84.55964998 -1.5625 87.875 C-1.85560059 88.93364258 -2.14870117 89.99228516 -2.45068359 91.08300781 C-2.73637207 92.10491211 -3.02206055 93.12681641 -3.31640625 94.1796875 C-3.56849854 95.08444824 -3.82059082 95.98920898 -4.08032227 96.92138672 C-5.2919143 100.97718059 -6.66144036 104.98432107 -8 109 C13.78 109 35.56 109 58 109 C58 113.62 58 118.24 58 123 C28.96 123 -0.08 123 -30 123 C-30 118.14668388 -29.96292449 114.96190035 -28.93359375 110.46484375 C-28.69890381 109.42312012 -28.46421387 108.38139648 -28.22241211 107.30810547 C-27.96339111 106.19580566 -27.70437012 105.08350586 -27.4375 103.9375 C-27.03640015 102.18010498 -27.03640015 102.18010498 -26.62719727 100.38720703 C-26.05447803 97.8850934 -25.47811726 95.38381099 -24.8984375 92.88330078 C-24.14557886 89.62923296 -23.40205721 86.37336197 -22.66403198 83.11592102 C-17.20432183 59.0400249 -17.20432183 59.0400249 -13.98632812 48.63745117 C-11.36610072 40.12065214 -9.18250577 31.47828463 -6.94165039 22.85546875 C-4.91002537 15.12097428 -2.60909471 7.55998267 0 0 Z " fill="#F7F7F7" transform="translate(663,1275)"/>
<path d="M0 0 C5.94 0 11.88 0 18 0 C14.35726121 29.14191035 7.67471519 57.95486343 -1 86 C-1.7361473 88.51880366 -2.46553641 91.03959427 -3.1875 93.5625 C-3.49042969 94.61566406 -3.79335938 95.66882812 -4.10546875 96.75390625 C-5.13383885 100.48567721 -6.06117534 104.24470137 -7 108 C25.175 108.495 25.175 108.495 58 109 C58 113.62 58 118.24 58 123 C28.96 123 -0.08 123 -30 123 C-28.70363416 112.62907329 -27.30425221 103.07564504 -24.75 93.0625 C-24.12200544 90.53655536 -23.49440855 88.01051182 -22.8671875 85.484375 C-22.39684082 83.60782227 -22.39684082 83.60782227 -21.91699219 81.69335938 C-20.78311197 77.12644246 -19.6999394 72.54850262 -18.62036133 67.96850586 C-16.20581344 57.74483717 -13.60365123 47.60242174 -10.71240234 37.50390625 C-9.87709277 34.56801352 -9.05709268 31.62803627 -8.23828125 28.6875 C-7.93011475 27.58148437 -7.62194824 26.47546875 -7.30444336 25.3359375 C-6.70223977 23.17452173 -6.10017988 21.01306593 -5.49829102 18.8515625 C-3.73483184 12.54546087 -1.90058706 6.26617795 0 0 Z " fill="#F8F8F8" transform="translate(953,1275)"/>
<path d="M0 0 C1.22391953 -0.01210762 1.22391953 -0.01210762 2.4725647 -0.02445984 C4.20938988 -0.03832821 5.94624264 -0.04903798 7.68310547 -0.05688477 C10.30621728 -0.07392419 12.92801047 -0.11776062 15.55078125 -0.16210938 C36.13683294 -0.35325705 36.13683294 -0.35325705 43.4140625 6.55078125 C43.9296875 7.43765625 44.4453125 8.32453125 44.9765625 9.23828125 C45.52763672 10.0271875 45.52763672 10.0271875 46.08984375 10.83203125 C48.96960518 15.18630969 49.85003144 19.04158221 48.9765625 24.23828125 C44.66951111 41.30526028 44.66951111 41.30526028 37.98510742 45.48291016 C35.65586982 46.48759936 33.3358039 47.29650747 30.9140625 48.05078125 C30.06352295 48.33574463 29.2129834 48.62070801 28.33666992 48.91430664 C25.89191702 49.72009311 23.43738372 50.48329245 20.9765625 51.23828125 C19.87054687 51.60179687 18.76453125 51.9653125 17.625 52.33984375 C5.22556165 55.99477461 -8.32385906 54.34949436 -21.0234375 53.23828125 C-20.37482341 46.94956452 -19.10446612 40.9913593 -17.5546875 34.8671875 C-17.31431763 33.90425278 -17.07394775 32.94131805 -16.82629395 31.94920349 C-16.32087744 29.9291884 -15.81315037 27.90975015 -15.30322266 25.89086914 C-14.52008808 22.78750836 -13.7458733 19.68201679 -12.97265625 16.57617188 C-12.47969184 14.6105453 -11.98622047 12.64504578 -11.4921875 10.6796875 C-11.25987427 9.74749893 -11.02756104 8.81531036 -10.78820801 7.85487366 C-10.46282043 6.57234962 -10.46282043 6.57234962 -10.13085938 5.26391602 C-9.94068237 4.50861099 -9.75050537 3.75330597 -9.55456543 2.97511292 C-8.24274938 -1.31463259 -3.76699772 0.03515519 0 0 Z " fill="#020202" transform="translate(1362.0234375,1287.76171875)"/>
<path d="M0 0 C5.44021451 -0.10010303 10.87987385 -0.17204096 16.32080078 -0.21972656 C18.16529702 -0.23963929 20.00973185 -0.26677967 21.85400391 -0.30175781 C48.73609727 -0.79822233 48.73609727 -0.79822233 56.69897461 6.46020508 C61.35853211 11.89870802 63.12232006 16.94402986 62.5859375 24.07421875 C61.1028395 31.47982145 57.87344756 36.86747951 52.07592773 41.6484375 C48.36289757 44.065859 44.35107761 44.89558731 40.0625 45.8125 C39.20720703 46.01552734 38.35191406 46.21855469 37.47070312 46.42773438 C29.73238459 48.21622447 22.23368065 49.12584441 14.2890625 49.1328125 C13.59485199 49.13376923 12.90064148 49.13472595 12.18539429 49.13571167 C10.73508614 49.13638603 9.28477484 49.13458426 7.83447266 49.13037109 C5.60963281 49.12496264 3.38499034 49.13036627 1.16015625 49.13671875 C-0.25520878 49.13605879 -1.67057368 49.13477935 -3.0859375 49.1328125 C-4.3651709 49.13168457 -5.6444043 49.13055664 -6.96240234 49.12939453 C-10 49 -10 49 -12 48 C-10.74120019 41.44975453 -9.3200716 34.96688558 -7.6875 28.5 C-7.40616211 27.36304688 -7.40616211 27.36304688 -7.11914062 26.203125 C-4.91701191 17.42293334 -2.44081741 8.71609756 0 0 Z " fill="#010101" transform="translate(1604,1288)"/>
<path d="M0 0 C2.3828125 -0.29296875 2.3828125 -0.29296875 5.125 -0.1875 C6.03507813 -0.16042969 6.94515625 -0.13335938 7.8828125 -0.10546875 C8.58148437 -0.07066406 9.28015625 -0.03585937 10 0 C10.41697268 4.01125365 10.8252429 8.02330679 11.22680664 12.03613281 C11.42894041 14.04013802 11.63718699 16.04352382 11.84570312 18.046875 C13.00842887 29.73085074 13.46421534 41.21273746 14 53 C-2.17 53 -18.34 53 -35 53 C-33.87548487 45.1283941 -33.87548487 45.1283941 -31.62890625 42.30859375 C-31.14212402 41.68122314 -30.6553418 41.05385254 -30.15380859 40.4074707 C-29.62867676 39.75738037 -29.10354492 39.10729004 -28.5625 38.4375 C-27.46074891 37.02459864 -26.36051313 35.61051448 -25.26171875 34.1953125 C-24.43486572 33.14005371 -24.43486572 33.14005371 -23.59130859 32.06347656 C-21.26173445 29.04267867 -19.06589975 25.93454317 -16.875 22.8125 C-13.11981103 17.49613091 -9.22348702 12.30661833 -5.22216797 7.1730957 C-3.3920964 4.8241662 -1.65320343 2.47980514 0 0 Z " fill="#050505" transform="translate(812,1301)"/>
<path d="M0 0 C0.4100159 4.19504509 0.81889543 8.39019908 1.22680664 12.58544922 C1.36518046 14.00702774 1.5038432 15.42857818 1.64282227 16.85009766 C2.1037577 21.56594977 2.55513158 26.28260329 3 31 C3.15879639 32.65418945 3.15879639 32.65418945 3.32080078 34.34179688 C3.41216309 35.34791016 3.50352539 36.35402344 3.59765625 37.390625 C3.67636963 38.24172852 3.75508301 39.09283203 3.83618164 39.96972656 C4.07066588 44.30716073 4 48.65623228 4 53 C-12.17 53 -28.34 53 -45 53 C-43.87557868 45.12905079 -43.87557868 45.12905079 -41.734375 42.44921875 C-41.26298096 41.84239258 -40.79158691 41.23556641 -40.3059082 40.61035156 C-39.7924585 39.97581055 -39.27900879 39.34126953 -38.75 38.6875 C-37.65318636 37.28132015 -36.55820126 35.87371255 -35.46484375 34.46484375 C-34.89491699 33.7363623 -34.32499023 33.00788086 -33.73779297 32.25732422 C-30.83634695 28.48846079 -28.08170065 24.61640794 -25.3125 20.75 C-24.7652124 19.99823486 -24.2179248 19.24646973 -23.65405273 18.47192383 C-21.19569111 15.09412681 -18.7875438 11.71192883 -16.53125 8.1953125 C-15.7990625 7.09960938 -15.066875 6.00390625 -14.3125 4.875 C-13.71050781 3.92367188 -13.10851562 2.97234375 -12.48828125 1.9921875 C-8.64613931 -1.0839387 -4.74080999 -0.39909445 0 0 Z " fill="#050505" transform="translate(580,1301)"/>
</svg>
